<svg xmlns="http://www.w3.org/2000/svg" width="24" height="24" viewBox="0 0 24 24">
  <path fill="currentColor" d="M13.504 4.127a1.558 1.558 0 1 1-3.116 0 1.558 1.558 0 0 1 3.116 0Z"/>
  <path fill="currentColor" d="M11.947 4.127a5.788 5.788 0 0 1 5.784 5.565c0 .002 0 .003.002.003s.003.001.003.003v3.376c0 .62.718 1.114 1.066 1.627l1.012 1.494a1 1 0 0 1-.829 1.56H5.015a1 1 0 0 1-.828-1.56l1.01-1.494c.33-.487.962-.953.962-1.541V9.698c0-.002.002-.003.003-.003a.003.003 0 0 0 .003-.003 5.787 5.787 0 0 1 5.782-5.565Zm2.404 14.893a2.412 2.412 0 0 1-4.811.246l-.013-.246h4.824Z"/>
</svg>