<svg xmlns="http://www.w3.org/2000/svg" width="24" height="24" fill="currentColor" viewBox="0 0 24 24">
  <path d="M17.136 16.383 14.753 14c.123-.197.219-.428.286-.693a3.22 3.22 0 0 0 .102-.803c0-.875-.305-1.617-.915-2.227-.61-.61-1.352-.914-2.226-.914-.271 0-.536.03-.794.092-.26.062-.493.16-.702.296L8.47 7.7c.431-.197.982-.37 1.654-.518a9.136 9.136 0 0 1 1.967-.221c1.663 0 3.197.455 4.6 1.367 1.405.911 2.477 2.137 3.216 3.677a.588.588 0 0 1 .073.221 2.167 2.167 0 0 1 0 .563.6.6 0 0 1-.073.232c-.32.677-.715 1.3-1.183 1.866a8.71 8.71 0 0 1-1.589 1.496Zm.665 3.77-2.697-2.643a7.181 7.181 0 0 1-1.46.398 9.765 9.765 0 0 1-1.644.138c-1.7 0-3.258-.456-4.674-1.367a8.825 8.825 0 0 1-3.234-3.677.778.778 0 0 1-.074-.23 1.771 1.771 0 0 1 .01-.555c.018-.092.04-.17.064-.23a8.767 8.767 0 0 1 .989-1.617 9.94 9.94 0 0 1 1.413-1.488l-1.94-1.94a.532.532 0 0 1-.166-.388.53.53 0 0 1 .166-.388A.542.542 0 0 1 4.951 6c.154 0 .287.055.398.166l13.228 13.229a.49.49 0 0 1 .148.36c0 .142-.05.268-.148.379a.464.464 0 0 1-.378.185.542.542 0 0 1-.398-.167ZM12 15.643c.172 0 .357-.015.554-.046.197-.03.364-.077.5-.138l-4.01-4.01a2.263 2.263 0 0 0-.139.5c-.03.184-.046.369-.046.554 0 .886.308 1.632.924 2.235a3.055 3.055 0 0 0 2.217.905Zm1.94-2.457-2.624-2.623c.764-.284 1.472-.136 2.125.443s.82 1.306.499 2.18Z"/>
</svg>
