<svg xmlns="http://www.w3.org/2000/svg" width="24" height="24" fill="currentColor" viewBox="0 0 24 24">
  <path fill="#3E82F1" fill-rule="evenodd" d="M21 11.717a10.65 10.65 0 0 0-.176-1.944h-9.132v3.675h5.217a4.322 4.322 0 0 1-.668 1.626 4.415 4.415 0 0 1-1.266 1.238v2.384h3.132c1.833-1.654 2.89-4.09 2.89-6.981l.003.002Z" clip-rule="evenodd"/>
  <path fill="#32A753" fill-rule="evenodd" d="M11.694 21c2.617 0 4.812-.85 6.415-2.301l-3.132-2.384c-.868.57-1.979.907-3.283.907-2.525 0-4.662-1.672-5.424-3.917H3.031v2.462a9.573 9.573 0 0 0 3.574 3.82A9.838 9.838 0 0 0 11.694 21Z" clip-rule="evenodd"/>
  <path fill="#F9BB00" fill-rule="evenodd" d="M6.27 13.305a5.508 5.508 0 0 1 0-3.61V7.233H3.031a9.36 9.36 0 0 0-1.03 4.267 9.36 9.36 0 0 0 1.03 4.267l3.24-2.462Z" clip-rule="evenodd"/>
  <path fill="#E74133" fill-rule="evenodd" d="M11.694 5.778c1.424 0 2.701.48 3.706 1.421l2.78-2.725C16.5 2.94 14.307 2 11.696 2a9.839 9.839 0 0 0-5.089 1.413 9.572 9.572 0 0 0-3.574 3.82l3.24 2.462c.76-2.245 2.898-3.917 5.423-3.917h-.002Z" clip-rule="evenodd"/>
</svg>
