<svg xmlns="http://www.w3.org/2000/svg" width="24" height="24" fill="currentColor" viewBox="0 0 24 24">
  <path d="M12 8.834c-1.712 0-3.167 1.455-3.167 3.166 0 1.712 1.455 3.167 3.167 3.167 1.712 0 3.167-1.455 3.167-3.167 0-1.711-1.455-3.166-3.167-3.166Z"/>
  <path d="M16.06 2.5H8.026C4.918 2.5 2.5 4.918 2.5 7.94v8.033c0 3.109 2.418 5.527 5.527 5.527h8.032c3.023 0 5.441-2.418 5.441-5.527V7.94a5.418 5.418 0 0 0-5.44-5.44ZM12 17.01c-2.764 0-4.923-2.246-4.923-4.924 0-2.677 2.16-5.009 4.923-5.009 2.764 0 4.923 2.246 4.923 4.923s-2.16 5.01-4.923 5.01Zm5.096-8.896a1.143 1.143 0 0 1-1.123-1.123c0-.605.518-1.123 1.123-1.123.604 0 1.122.518 1.122 1.123 0 .604-.518 1.123-1.122 1.123Z"/>
</svg>
